<?xml version="1.0" encoding="utf-8"?>
<!-- Generator: Adobe Illustrator 17.1.0, SVG Export Plug-In . SVG Version: 6.00 Build 0)  -->
<!DOCTYPE svg PUBLIC "-//W3C//DTD SVG 1.1//EN" "http://www.w3.org/Graphics/SVG/1.1/DTD/svg11.dtd">
<svg version="1.1" id="Layer_1" xmlns="http://www.w3.org/2000/svg" xmlns:xlink="http://www.w3.org/1999/xlink" x="0px" y="0px"
	 viewBox="0 261 612 122" enable-background="new 0 261 612 122" xml:space="preserve">
<g>
	<path fill="none" d="M248.8,328.6l5-25.5c-6.3-11.4-18.3-0.3-22,16.3C227.8,338.1,234.5,347.7,248.8,328.6z"/>
	<path fill="none" d="M342.9,305.3c-5.1,7.3-9.8,29.9-0.6,35c5,2.9,12-2.2,14.7-19.1c0.6-3.5,0.7-6.7-0.1-9.7
		C355.3,304,348.7,297.1,342.9,305.3z"/>
	<path fill="#0d5c8e" d="M183.1,276.4c-6.7,5.6-10.6,15.8-8.6,30.3l13.9-6.3c-4.4-7.5-4.5-16-0.6-19.1c4.3-3.1,11-4.4,17.7-5l-13.6,66.2
		c-0.3,1.8-0.9,3.4-1.3,4.8c-6,16.3-18.8,11-20.5-2.6c-2.6,1.9-7.3,5.4-11,8.1c4.5,13.5,21.3,17.6,33.9,8.9
		c4.3-2.9,8.1-7.5,10.8-13.8c1.3-3.2,2.8-6.7,3.5-10.7l13.9-69.6C206.4,267.6,192,269.1,183.1,276.4z"/>
	<path fill="#0d5c8e"  d="M248.5,335.4c1,13.5,15.7,12.8,25.8,3.2c7.2,13.3,47.3,7.6,42.4-12.6c-0.9-2.6-2.6-4.5-4.8-6.4c-2.6-1.8-5.7-3.7-8.4-5
		c-3.1-1.6-5.7-3.4-7.3-5c-1.3-1.5-1.6-1.8-1.9-4c-0.4-2.1,1.3-5,4.5-6.3c1.9-1.5,5-2.2,7.2-1.8c6.2,0.6,4.4,6.2,2.9,9.2l11.6,4.1
		c0.9-3.2,0.9-6.4-0.1-8.9c-2.5-5.3-8.4-8.4-16-8.8c-5.3-0.6-10.7,0.1-15.5,2.2c-9.4,3.8-11,11.4-6.6,17.3c1.5,2.5,4.5,5.3,7.2,6.7
		c2.6,1.9,4.7,2.8,8.2,4.8c2.9,2.2,6.6,5.1,5,8.6c-1.3,3.1-4,5.1-7.3,6.6c-5.7,2.2-12.6,1.2-13.9-2.2c-1.3-2.8,1.6-6.2,7.9-8.1
		l-7.6-6.4c-5.6,2.3-8.6,7.2-8.5,11.7c-5.6,5.9-13.3,8.5-11.7-0.1c2.3-11.9,4.5-21,7.8-36.6l0.9-3.8h-26.1
		c-18.5,0-26.5,17.1-28,33.7C214.2,348.7,237.5,351.6,248.5,335.4z M231.6,319.5c3.7-16.7,15.7-27.7,22-16.3l-5,25.5
		C234.5,347.7,227.8,338.1,231.6,319.5z"/>
	<path fill="#0d5c8e" d="M440.9,330.1c-1.6-2.1-4.1-3.7-6.6-4.3c-1.3-0.4-2.8-0.3-3.8,0.4c-1.3,0.9-1.9,2.5-2.8,4c-1.9,3.2-3.8,6.3-6.2,9.1
		c-1.2,1.3-2.6,2.6-4.4,2.8c-3.1,0.1-2.5-4-2.2-5.9c2.2-12.6,1.6-8.8,4.1-21.5c4.3-23.2-15.2-22.3-26.2-9.8l1.6-6.4h-14.1l-2.3,10.3
		c-3.2,2.2-7,3.4-11,4.4c0-2.8-0.6-5.6-1.3-7.5c-5-11.9-19.2-11.6-28.7-6c-9.5,5.4-15.5,15.7-16.7,25.6c-1,9.5,2.5,18.3,12,21.7
		c12.2,4.7,31.2-4.4,34.1-27.8c3.5-1.6,7-2.8,10.6-5.9l-7.2,36.5h14.7l6.4-35.3c3.8-9.5,17.7-18.5,15.4-6.6
		c-1.3,6.9-2.5,13.5-4,20.4c-0.4,1.9-0.6,3.8-0.7,5.6c-0.1,3.2,0.4,6.6,2.1,9.5c0.9,1.5,2.2,2.8,3.7,3.7c1.5,0.9,3.2,1.3,4.8,1.3
		c6.4,0.3,11.7-4.7,15.1-9.7c0.9-1.3,1.8-2.9,2.9-4.1c2.2-2.3,5.7,1.6,6.4,3.7c0.9,2.5,0.4,5.4-0.4,7.9c-0.6,1.6-1.5,3.4-2.5,4.7
		c-4.4,5.4-11.7,9.2-18.3,10.3c-10.6,1.6-20.1,1.2-30.6,0.7c-7.2-0.3-14.4-0.9-21.5-1.3c-50-3.7-100.2-5.6-150.4-5.6
		c-1.2,0-2.3,0-3.4,0.7c-1.2,0.9-1.3,2.5-1.3,4c0.1,5.6,1.8,13,8.2,14.1c2.8,0.4,5.6-0.1,8.4-0.7c28.6-6,57.9-6.3,86.9-5.3
		c20.1,0.7,40.3,1.3,60.4,1.8c7.5,0.1,14.9,0.1,22.4-0.1c7.2-0.3,14.2-0.7,21.3-2.5c6.7-1.6,14.7-5,20.4-11c5-5.1,8.4-10.3,7.9-17.6
		C443.7,335.1,442.7,332.4,440.9,330.1z M354.1,321.1c-2.6,17-9.8,22-14.7,19.1c-9.1-5.1-4.5-27.7,0.6-35c5.9-8.1,12.3-1.3,13.9,6.3
		C354.7,314.5,354.7,317.8,354.1,321.1z"/>
</g>
<path fill="#0d5c8e" sd="M314,328.8c0,0,11.6-4.4,13.2-6.3s-1,3.2-1,3.2S316,334,313,334.3C309.9,334.8,314,328.8,314,328.8z"/>
</svg>
